<?xml version="1.0" encoding="UTF-8" standalone="yes"?>
<svg xmlns="http://www.w3.org/2000/svg" xmlns:xlink="http://www.w3.org/1999/xlink" width="158.678mm" height="171.654mm" version="1.1" viewBox="71597.125 95300.203 824.625 892.062">
  <!--
	Exported with Concepts: Smarter Sketching
	Version: 2032 on iOS 16.3
	https://concepts.app/
	-->
  <title>1531D02E-EC02-4AA6-B43C-4F874F98729F</title>
  <desc>Drawing exported from Concepts: Smarter Sketching</desc>
  <defs></defs>
  <g id="Dots_4_Copy_2" opacity="1.000">
    <path id="STROKE_1860dde9-78fc-41b9-833e-ada87fcc3603" opacity="1.000" fill="none" stroke="#171612" stroke-width="19.405" stroke-opacity="1.000" stroke-linecap="round" stroke-linejoin="round" d="M 71885.852 95387.102 Q 71886.117 95387.109 71889.578 95387.938 L 71889.578 95388.250 Q 71889.828 95388.250 71890.758 95388.250 Q 71894.016 95377.875 71889.578 95323.461 Q 71870.133 95327.438 71867.266 95408.445 Q 71864.391 95489.453 71865.656 95563.000 Q 71866.914 95636.547 71869.516 95683.523 Q 71872.125 95730.500 71873.227 95756.312 Q 71874.328 95782.117 71875.406 95825.000 Q 71876.477 95867.883 71870.125 95914.312 Q 71863.773 95960.742 71851.477 95998.773 Q 71839.180 96036.805 71828.602 96060.594 Q 71818.023 96084.383 71796.062 96105.688 Q 71774.102 96126.984 71759.453 96136.531 Q 71744.812 96146.070 71730.492 96154.609 Q 71716.172 96163.141 71668.445 96170.820 Q 71658.664 96162.328 71682.117 96116.859 "></path>
    <path id="STROKE_f9b63bd4-782d-4fbe-9016-5245edb6c951" opacity="1.000" fill="none" stroke="#171612" stroke-width="20.010" stroke-opacity="1.000" stroke-linecap="round" stroke-linejoin="round" d="M 71673.516 95729.398 Q 71668.148 95731.430 71617.805 95756.227 Q 71628.516 95755.648 71665.750 95727.242 Q 71702.992 95698.836 71726.164 95683.094 Q 71749.336 95667.359 71790.703 95642.203 Q 71832.078 95617.055 71868.836 95599.969 Q 71905.594 95582.875 71931.555 95577.875 Q 71957.516 95572.883 71975.625 95570.867 Q 71993.734 95568.852 72001.406 95571.734 Q 72009.078 95574.625 72010.156 95581.883 Q 72011.242 95589.141 72010.562 95603.203 Q 72009.883 95617.266 71994.422 95641.414 Q 71978.953 95665.562 71960.656 95690.516 Q 71942.367 95715.461 71910.914 95750.203 Q 71879.461 95784.945 71848.391 95819.742 Q 71845.359 95821.164 71879.633 95818.438 Q 71913.906 95815.719 71946.000 95821.609 Q 71978.094 95827.500 71997.430 95833.367 Q 72016.766 95839.234 72033.172 95846.984 Q 72049.570 95854.742 72067.594 95867.180 Q 72085.617 95879.617 72098.375 95899.312 Q 72111.133 95919.008 72114.391 95942.500 Q 72117.656 95965.992 72113.695 95989.297 Q 72109.734 96012.594 72094.156 96035.500 Q 72078.578 96058.406 72064.062 96073.992 Q 72049.539 96089.578 72033.977 96094.500 Q 72018.414 96099.430 72008.406 96101.500 Q 71998.391 96103.570 71992.445 96078.445 Q 71986.500 96053.320 71987.625 96030.859 Q 71988.758 96008.406 72003.938 95979.727 Q 72019.125 95951.047 72036.266 95929.703 Q 72053.406 95908.359 72081.734 95883.242 Q 72110.070 95858.125 72138.875 95838.219 Q 72167.688 95818.320 72197.516 95797.547 Q 72227.344 95776.766 72273.594 95765.461 "></path>
    <path id="STROKE_4ea11df7-86bb-441e-9647-e9b30363d93a" opacity="1.000" fill="none" stroke="#171612" stroke-width="26.842" stroke-opacity="1.000" stroke-linecap="round" stroke-linejoin="round" d="M 72277.812 95761.664 Q 72278.273 95753.305 72278.656 95753.312 Q 72279.883 95743.805 72279.500 95693.969 L 72279.250 95693.969 Q 72278.461 95696.352 72263.867 95772.117 Q 72249.273 95847.883 72249.453 95986.773 "></path>
    <path id="STROKE_d1c1ebd5-4552-4baf-b7d9-768d891666a0" opacity="1.000" fill="none" stroke="#171612" stroke-width="22.120" stroke-opacity="1.000" stroke-linecap="round" stroke-linejoin="round" d="M 72400.023 95605.773 Q 72402.828 95594.125 72392.344 95531.617 Q 72391.836 95531.617 72388.375 95534.406 "></path>
  </g>
</svg>